<svg width="20" height="8" viewBox="0 0 20 8" fill="none" xmlns="http://www.w3.org/2000/svg">
<path d="M10.5497 4.00005L12.886 1.6637C13.038 1.51173 13.038 1.26602 12.886 1.11405C12.734 0.962076 12.4883 0.962076 12.3363 1.11405L9.99996 3.45039L7.66368 1.11405C7.51164 0.962076 7.266 0.962076 7.11403 1.11405C6.96199 1.26602 6.96199 1.51173 7.11403 1.6637L9.45031 4.00005L7.11403 6.33639C6.96199 6.48836 6.96199 6.73408 7.11403 6.88605C7.18977 6.96185 7.28935 6.99994 7.38886 6.99994C7.48837 6.99994 7.58788 6.96185 7.66368 6.88605L9.99996 4.5497L12.3363 6.88605C12.4121 6.96185 12.5116 6.99994 12.6111 6.99994C12.7107 6.99994 12.8102 6.96185 12.886 6.88605C13.038 6.73408 13.038 6.48836 12.886 6.33639L10.5497 4.00005Z" fill="#6B6B6B"/>
</svg>
